<?xml version="1.0" encoding="iso-8859-1"?><!-- Generator: Adobe Illustrator 16.0.0, SVG Export Plug-In . SVG Version: 6.00 Build 0) --><!DOCTYPE svg PUBLIC "-//W3C//DTD SVG 1.1//EN" "http://www.w3.org/Graphics/SVG/1.1/DTD/svg11.dtd"><svg version="1.1" id="Layer_1" xmlns="http://www.w3.org/2000/svg" xmlns:xlink="http://www.w3.org/1999/xlink" x="0px" y="0px" width="436.506px" height="152.503px" viewBox="0 0 436.506 152.503" style="enable-background:new 0 0 436.506 152.503;" xml:space="preserve"><g><g><path style="fill:#092E20;" d="M51.465,0h23.871v110.496c-12.245,2.325-21.236,3.256-31.002,3.256	C15.191,113.75,0,100.576,0,75.308c0-24.337,16.122-40.147,41.078-40.147c3.875,0,6.82,0.309,10.387,1.239V0z M51.465,55.62	c-2.79-0.929-5.115-1.239-8.061-1.239c-12.091,0-19.067,7.441-19.067,20.461c0,12.712,6.666,19.687,18.912,19.687	c2.635,0,4.806-0.154,8.216-0.619V55.62z"/><path style="fill:#092E20;" d="M113.312,36.865v55.338c0,19.067-1.396,28.213-5.58,36.118	c-3.876,7.597-8.992,12.401-19.532,17.673l-22.167-10.541c10.541-4.961,15.656-9.3,18.911-15.968	c3.411-6.819,4.497-14.726,4.497-35.497V36.865H113.312z M89.441,0.127h23.871v24.492H89.441V0.127z"/><path style="fill:#092E20;" d="M127.731,42.29c10.542-4.959,20.617-7.129,31.623-7.129c12.246,0,20.306,3.254,23.872,9.61	c2.014,3.565,2.634,8.215,2.634,18.137v48.517c-10.697,1.55-24.182,2.636-34.102,2.636c-19.996,0-28.988-6.978-28.988-22.478	c0-16.743,11.936-24.493,41.233-26.974v-5.27c0-4.34-2.17-5.889-8.216-5.889c-8.835,0-18.756,2.48-28.058,7.286L127.731,42.29	L127.731,42.29z M165.09,80.268c-15.812,1.55-20.928,4.03-20.928,10.231c0,4.649,2.946,6.819,9.456,6.819	c3.566,0,6.82-0.309,11.471-1.084L165.09,80.268L165.09,80.268z"/><path style="fill:#092E20;" d="M197.487,40.585c14.105-3.72,25.731-5.424,37.512-5.424c12.246,0,21.082,2.789,26.354,8.215	c4.96,5.114,6.509,10.694,6.509,22.632v46.812H243.99V66.938c0-9.145-3.1-12.557-11.625-12.557c-3.255,0-6.2,0.31-11.007,1.705	v56.734h-23.871V40.585z"/><path style="fill:#092E20;" d="M277.142,125.841c8.372,4.341,16.742,6.354,25.577,6.354c15.654,0,22.32-6.354,22.32-21.546	c0-0.154,0-0.311,0-0.465c-4.649,2.324-9.301,3.255-15.5,3.255c-20.927,0-34.26-13.796-34.26-35.651	c0-27.129,19.688-42.474,54.564-42.474c10.231,0,19.688,1.084,31.158,3.409l-8.174,17.219c-6.355-1.24-0.509-0.166-5.312-0.631	v2.481l0.309,10.074l0.154,13.022c0.155,3.254,0.155,6.51,0.311,9.765c0,2.945,0,4.342,0,6.512	c0,20.461-1.705,30.071-6.819,37.977c-7.441,11.627-20.308,17.361-38.599,17.361c-9.301,0-17.359-1.395-25.731-4.65	L277.142,125.841L277.142,125.841z M324.576,54.536c-0.31,0-0.619,0-0.773,0h-1.706c-4.649-0.155-10.074,1.084-13.796,3.409	c-5.734,3.256-8.682,9.147-8.682,17.517c0,11.937,5.893,18.757,16.433,18.757c3.255,0,5.891-0.621,8.989-1.55v-1.707v-6.508	c0-2.791-0.153-5.893-0.153-9.146l-0.154-11.005l-0.156-7.906L324.576,54.536L324.576,54.536z"/><path style="fill:#092E20;" d="M398.062,34.85c23.871,0,38.443,15.037,38.443,39.373c0,24.958-15.19,40.614-39.373,40.614	c-23.873,0-38.6-15.037-38.6-39.218C358.534,50.505,373.726,34.85,398.062,34.85z M397.595,95.614	c9.146,0,14.572-7.596,14.572-20.772c0-13.02-5.271-20.771-14.415-20.771c-9.457,0-14.884,7.597-14.884,20.771	C382.87,88.019,388.296,95.614,397.595,95.614z"/></g></g></svg>