<?xml version="1.0" encoding="utf-8"?><!-- Generator: Adobe Illustrator 19.2.0, SVG Export Plug-In . SVG Version: 6.00 Build 0) --><svg version="1.1" id="Layer_1" xmlns="http://www.w3.org/2000/svg" xmlns:xlink="http://www.w3.org/1999/xlink" x="0px" y="0px" viewBox="0 0 5105.4 5105.4" style="enable-background:new 0 0 5105.4 5105.4;" xml:space="preserve"><style type="text/css">.st0{fill:#CF4547;}	.st1{fill:#FFFFFF;stroke:#FFFFFF;stroke-width:13.3857;stroke-miterlimit:10;}</style><rect class="st0" width="5105.4" height="5105.4"/><g><path class="st1" d="M1766.5,2586.7c-2.4,3.5-6.6,14.4-12.8,32.9c-6.2,18.5-13.7,41.6-22.5,69.4c-8.8,27.8-18.4,59-28.6,93.4	c-10.3,34.4-20.9,69.6-31.7,105.4c-10.9,35.9-21.3,71-31.3,105.5c-10,34.4-19,65.6-26.9,93.4c-7.9,27.8-14.5,51.1-19.8,70	c-5.3,18.8-8.5,29.9-9.7,33.4c-2.9,11.1-7.6,23.5-14.1,37.1c-6.5,13.6-14.1,26.4-22.9,38.6c-8.8,12.2-18.5,22.3-29.1,30.3	c-10.6,8-21.5,12-32.6,12c-18.8,0-32.5-6.3-41-18.8c-8.5-12.5-12.8-35.5-12.8-68.9c0-4.9,0-9.8,0-14.6c0-4.9,0.3-10.1,0.9-15.6	c0.6-11.1,5-32,13.2-62.7c8.2-30.6,18.1-65.2,29.5-103.9s23.8-78.6,37-120.1c13.2-41.4,25.1-78.5,35.7-111.2	c-31.2,34.8-64.9,69.4-101.4,103.9c-36.4,34.5-73.8,65.4-111.9,92.9c-38.2,27.5-76.7,50-115.5,67.3	c-38.8,17.4-76.1,26.1-111.9,26.1c-41.1,0-76.5-9.1-106.2-27.1c-29.7-18.1-54.2-41.8-73.6-71s-33.8-62.3-43.2-99.2	c-9.4-36.9-14.1-73.8-14.1-110.7c0-4.8,0-9.4,0-13.6c0-4.2,0.3-8.3,0.9-12.5c3.5-66.8,13.1-135.4,28.6-205.7	c15.6-70.3,36-140.3,61.3-209.8c25.3-69.6,54.5-137.6,87.7-204.1c33.2-66.5,69.3-129.3,108.4-188.4	c39.1-59.1,80.6-113.6,124.7-163.4c44.1-49.8,89.3-92.6,135.7-128.4c46.4-35.8,93.3-63.8,140.6-84c47.3-20.2,94.2-30.3,140.6-30.3	c53.5,0,105.2,14.6,155.1,43.8c49.9,29.2,96.6,76.6,140.1,142c10,14.6,16.3,29.4,18.9,44.4c2.6,15,4,29.1,4,42.3	c0,31.3-7.5,56-22.5,74.1c-15,18.1-32.8,27.1-53.3,27.1c-18.8,0-36.3-9.9-52.4-29.8c-16.2-19.8-34.2-48.2-54.2-85.1	c-18.8-33.4-39.5-57.6-62.1-72.6c-22.6-15-47.2-22.4-73.6-22.4c-41.1,0-85.1,17.1-131.8,51.2c-46.7,34.1-93,79.2-138.8,135.2	c-45.8,56-89.8,120-131.8,192.1c-42,72-79.2,145.8-111.5,221.3c-32.3,75.5-58,150-77.1,223.4c-19.1,73.4-28.6,139.4-28.6,197.9	c0,19.5,1.3,39.5,4,60c2.7,20.5,7.6,39.2,15,55.9c7.3,16.7,17.3,30.5,30,41.2c12.6,10.8,28.6,16.2,48,16.2c21.7,0,46.4-7.3,74-21.9	c27.6-14.6,56.3-33.7,85.9-57.4c29.7-23.7,59.5-50.5,89.5-80.4c30-29.9,57.9-60.2,83.7-90.8c25.8-30.6,48.8-60,68.7-88.2	c20-28.2,35-52.7,44.9-73.6l82-245.3c10-26.4,23.1-45.2,39.2-56.4c16.2-11.1,32.8-16.7,49.8-16.7c8.2,0,16.4,1.4,24.7,4.2	c8.2,2.8,15.6,7.1,22,13.1c6.5,5.9,11.6,13.6,15.4,23c3.8,9.4,5.7,20.4,5.7,32.9c0,33.4-2.9,64.7-8.8,94	c-5.9,29.3-13.4,57.8-22.5,85.6c-9.1,27.8-19.2,55.9-30.4,84C1787.9,2526.6,1777,2556,1766.5,2586.7z"/><path class="st1" d="M2877.9,2791.3c-25.9,34.8-56,68.7-90.3,101.8c-34.4,33.1-69.8,62.5-106.2,88.2	c-36.4,25.7-72.3,46.4-107.5,62.1c-35.3,15.7-67,23.5-95.2,23.5s-51.1-9.4-68.8-28.2c-17.6-18.8-26.4-50.8-26.4-96.1	c0-32,4.7-69.3,14.1-111.7c-15.3,27.2-34.4,54.7-57.3,82.5c-22.9,27.8-49.1,53.2-78.5,76.2c-29.4,23-62.3,41.6-98.7,55.8	c-36.4,14.3-76.1,21.4-119,21.4c-19.4,0-38.1-2.4-56-7.3c-17.9-4.9-33.6-13.2-47.1-25c-13.5-11.8-24.4-27.6-32.6-47.5	c-8.2-19.8-12.3-44.7-12.3-74.6c0-0.7,1.2-11.3,3.5-31.8c2.3-20.5,9.8-52.9,22.5-97.1c12.6-44.2,32.2-101.4,58.6-171.7	c26.5-70.3,63.8-155.5,111.9-255.8c12.3-26.4,26.6-45.4,42.7-56.9c16.2-11.5,33.6-17.2,52.4-17.2c8.2,0,16.7,1.2,25.6,3.6	c8.8,2.5,17,6.3,24.7,11.5c7.6,5.2,13.8,11.8,18.5,19.8c4.7,8,7.1,17.2,7.1,27.7c0,7-0.9,13.6-2.7,19.8c-2.9,11.9-9.2,27.3-19,46.5	c-9.7,19.2-21,41.1-33.9,65.8c-12.9,24.7-26.6,51.3-41,79.9c-14.4,28.5-27.8,58.1-40.1,88.7c-12.3,30.6-22.9,61.8-31.7,93.4	c-8.8,31.7-13.8,62.5-15,92.4c0,12.5,2.9,24,8.8,34.5c5.9,10.4,15.6,15.7,29.1,15.7c38.2,0,74.6-12.5,109.3-37.6	c34.7-25,66.7-56.2,96.1-93.4c29.4-37.2,56-77.2,79.8-120.1c23.8-42.8,43.7-81.9,59.5-117.4c11.2-23.7,21-49.1,29.5-76.2	c8.5-27.1,17.8-52.2,27.8-75.2c10-23,21.4-42.1,34.4-57.4c12.9-15.3,29.1-23,48.5-23c21.1,0,37.9,8,50.2,24	c12.3,16,18.5,35.2,18.5,57.4c0,12.5-3.9,29.8-11.9,51.7c-8,21.9-17.9,47-30,75.2c-12,28.2-25.1,58.3-39.2,90.3	c-14.1,32-27.2,64.6-39.2,97.6c-12.1,33.1-22,65.4-30,97.1c-7.9,31.7-11.9,61.1-11.9,88.2c0,25.1,12.9,37.6,38.8,37.6	c18.2,0,40.8-6.3,67.9-18.8c27.1-12.5,55.4-30.1,85.1-52.7c29.7-22.6,59.3-49.2,89-79.9c29.7-30.6,56-63.7,78.9-99.2L2877.9,2791.3	z"/><path class="st1" d="M2905.3,2739.1c-6.5,16-12.8,34.6-19,55.9c-6.2,21.2-9.2,40.2-9.2,56.9c0,10.4,1.8,18.8,5.3,25.1	c3.5,6.3,10.3,9.4,20.3,9.4c12.3,0,27.7-4.3,46.3-13.1c18.5-8.7,38.5-20.2,59.9-34.5c21.5-14.2,43.8-30.6,67-49.1	c23.2-18.4,46.3-37.6,69.2-57.4c22.9-19.9,44.8-39.7,65.7-59.5c20.9-19.9,39.5-38.1,56-54.8c4.7-4.9,10.3-8.4,16.7-10.4	c6.4-2.1,12-3.1,16.7-3.1c11.7,0,21.5,4.9,29.1,14.6c7.6,9.7,11.4,22.6,11.4,38.6c0,14.6-4.1,31-12.3,49.1	c-8.2,18.1-22.6,35.9-43.2,53.2c-37.6,41.1-75.5,80-113.7,116.9c-38.2,36.9-76.2,69.4-114.1,97.6c-37.9,28.2-75.5,50.6-112.8,67.4	c-37.3,16.7-73.6,25-108.9,25c-24.1,0-44.2-3.8-60.4-11.5c-16.2-7.7-29.1-18.1-38.8-31.3c-9.7-13.2-16.6-28.9-20.7-47	c-4.1-18.1-6.2-37.2-6.2-57.4c0-34.1,4.3-69.1,12.8-104.9c8.5-35.8,18.6-68.7,30.4-98.6c20.6-54.3,41.4-108.2,62.6-161.8	c21.1-53.6,40.5-102.7,58.2-147.2l267-673.4c10.6-27.1,24.8-46.3,42.8-57.4c17.9-11.1,36-16.7,54.2-16.7c18.2,0,34.8,5.9,49.8,17.7	c15,11.8,22.5,31,22.5,57.4c0,12.5-2.5,25.8-7.5,39.7c-5,13.9-11.3,28.9-18.9,44.9c-14.7,32.7-32.2,72.7-52.4,120	c-20.3,47.3-42,98.8-65.2,154.5c-23.2,55.7-47,113.6-71.4,173.8c-24.4,60.2-48.2,118.8-71.4,175.9	c-23.2,57.1-44.9,111.2-65.2,162.3C2937.4,2657.1,2919.9,2701.5,2905.3,2739.1z"/><path class="st1" d="M4154.2,2550.1c8.2-5.6,15.9-10.1,22.9-13.6c7-3.5,13.8-5.2,20.3-5.2c12.9,0,22.6,5.8,29.1,17.2	c6.5,11.5,9.7,25.6,9.7,42.3c0,18.1-3.9,36.5-11.9,55.3c-7.9,18.8-19.8,34.4-35.7,47c-62.9,55.7-119,106.5-168.3,152.4	c-49.4,45.9-95.9,85.4-139.7,118.5c-43.8,33.1-86.5,58.6-128.2,76.7c-41.7,18.1-86.4,27.1-134,27.1c-44.7,0-79.2-9.8-103.6-29.2	c-24.4-19.5-36.6-46.3-36.6-80.4c0-2.8,0-5.4,0-7.8c0-2.4,0.3-5.4,0.9-8.9c2.3-20.9,11.5-44.9,27.3-72c15.9-27.1,35-55.3,57.3-84.6	s46.1-58.8,71.4-88.7c25.3-29.9,48.6-58.3,70.1-85.1c21.4-26.8,39.2-51.3,53.3-73.6c14.1-22.3,21.2-40.3,21.2-54.3	c0-8.4-3-15-8.8-19.8c-5.9-4.9-15.6-7.3-29.1-7.3c-23.5,0-47.7,6.1-72.7,18.3c-25,12.2-49.7,28.5-74,49	c-24.4,20.5-48.2,44-71.4,70.5c-23.2,26.5-44.9,53.9-65.2,82.5c-20.3,28.6-38.8,57.2-55.5,86.1c-16.7,28.9-31,55.5-42.7,79.9	c-3.5,7.7-8.5,18.5-15,32.4c-6.5,13.9-13.5,29.6-21.1,47c-7.7,17.4-15.7,35.3-24.3,53.7c-8.5,18.5-16.3,35.9-23.3,52.2	c-7.1,16.4-13.4,30.9-19,43.9c-5.6,12.9-9.6,21.7-11.9,26.6c-3,6.3-7.8,18.1-14.6,35.5c-6.8,17.4-14.5,37.7-23.4,61.1	c-8.8,23.3-18.1,47.8-27.7,73.6c-9.7,25.8-18.8,50.1-27.3,73.1c-8.5,23-16,43.1-22.5,60.5c-6.5,17.4-10.6,29.2-12.4,35.5	c-5.9,18.1-12.8,35.1-20.7,51.2c-7.9,16-17,30.1-27.3,42.3c-10.3,12.2-22,21.9-35.3,29.2c-13.2,7.3-28.1,10.9-44.5,10.9	c-21.2,0-38.6-5.1-52.5-15.1c-13.8-10.1-20.7-29.4-20.7-57.9c0-13.9,1.8-28.2,5.3-42.8c3.5-14.6,8-29.1,13.2-43.3	c5.3-14.3,10.7-28.2,16.3-41.7c5.6-13.6,10.7-26.6,15.4-39.2c31.7-69.6,64.1-139.4,97-209.3c32.9-70,64.5-139.2,94.7-207.8	c30.3-68.5,58.3-135.9,84.2-202c25.8-66.1,47.3-129.5,64.3-190c4.7-12.5,11.2-30.3,19.4-53.3c8.2-23,17.6-45.6,28.2-67.9	c10.6-22.3,22.5-41.6,35.7-57.9c13.2-16.4,27.5-24.5,42.7-24.5c23.5,0,40.5,5.4,51.1,16.2c10.6,10.8,15.9,26.6,15.9,47.5	c0,4.2-0.6,10.8-1.8,19.8c-1.2,9-2.7,18.6-4.4,28.7c-1.8,10.1-3.7,19.7-5.7,28.7c-2.1,9-4,15.6-5.7,19.8	c21.7-23.7,45.2-47.1,70.5-70.5c25.3-23.3,51.4-44.4,78.5-63.2c27-18.8,54.6-34.1,82.8-46c28.2-11.8,56.4-17.7,84.6-17.7	c19.4,0,38.6,2.8,57.7,8.4c19.1,5.6,36.1,13.7,51.1,24.5c15,10.8,27.2,24.4,36.6,40.7c9.4,16.4,14.1,35.3,14.1,56.9	c0,28.6-7.2,59-21.6,91.4c-14.4,32.4-32.5,64.9-54.2,97.6c-21.8,32.7-45.3,64.6-70.5,95.5c-25.3,31-48.9,59.2-71,84.6	c-22,25.4-40.5,47-55.5,64.7c-15,17.8-22.8,29.8-23.4,36c0,8.4,2.7,15.1,7.9,20.4s14.1,7.8,26.5,7.8c10,0,24.7-5.6,44.1-16.7	c19.4-11.1,46.6-30.4,81.5-57.9c34.9-27.5,79.3-64.4,133.1-110.7C4009.2,2678.7,4075.5,2620.4,4154.2,2550.1z"/></g></svg>