<?xml version="1.0" encoding="iso-8859-1"?><!-- Generator: Adobe Illustrator 16.0.0, SVG Export Plug-In . SVG Version: 6.00 Build 0) --><!DOCTYPE svg PUBLIC "-//W3C//DTD SVG 1.1//EN" "http://www.w3.org/Graphics/SVG/1.1/DTD/svg11.dtd"><svg version="1.1" id="Layer_1" xmlns="http://www.w3.org/2000/svg" xmlns:xlink="http://www.w3.org/1999/xlink" x="0px" y="0px" width="192.756px" height="192.756px" viewBox="0 0 192.756 192.756" style="enable-background:new 0 0 192.756 192.756;" xml:space="preserve"><g><polygon style="fill-rule:evenodd;clip-rule:evenodd;fill:#FFFFFF;" points="0,0 192.756,0 192.756,192.756 0,192.756 0,0	"/><path style="fill-rule:evenodd;clip-rule:evenodd;fill:#00678C;" d="M8.504,128.215h5.8v-22.977l9.058,20.033	c1.026,2.408,2.499,3.301,5.354,3.301c2.856,0,4.239-0.893,5.31-3.301l9.013-20.033v22.977h5.845v-22.977	c0-2.23-0.893-3.303-2.767-3.883c-4.417-1.338-7.362-0.178-8.7,2.811l-8.878,19.811l-8.567-19.811	c-1.294-2.988-4.284-4.148-8.745-2.811c-1.829,0.58-2.722,1.652-2.722,3.883V128.215L8.504,128.215z"/><path style="fill-rule:evenodd;clip-rule:evenodd;fill:#00678C;" d="M53.702,109.521h5.845v12.627	c-0.044,0.713,0.223,2.32,3.391,2.363c1.651,0.045,12.582,0,12.671,0v-15.08h5.845c0,0,0,20.568,0,20.658	c0,5.086-6.291,6.201-9.236,6.246H53.835v-3.881c0.044,0,18.382,0,18.427,0c3.748-0.402,3.302-2.275,3.302-2.9v-1.518H63.205	c-5.756-0.045-9.459-2.588-9.503-5.488C53.702,122.281,53.835,109.609,53.702,109.521L53.702,109.521z"/><path style="fill-rule:evenodd;clip-rule:evenodd;fill:#00678C;" d="M179.076,94.886c-3.568-0.089-6.336,0.268-8.656,1.25	c-0.668,0.269-1.74,0.269-1.828,1.116c0.357,0.355,0.4,0.936,0.713,1.428c0.535,0.893,1.473,2.096,2.32,2.721	c0.938,0.715,1.875,1.428,2.855,2.053c1.74,1.07,3.703,1.695,5.398,2.766c0.982,0.625,1.963,1.428,2.945,2.098	c0.49,0.357,0.803,0.938,1.428,1.16c0-0.045,0-0.09,0-0.135c-0.312-0.4-0.402-0.98-0.713-1.428	c-0.447-0.445-0.893-0.848-1.34-1.293c-1.293-1.74-2.9-3.258-4.641-4.506c-1.428-0.982-4.551-2.32-5.131-3.971	c0,0-0.045-0.045-0.088-0.09c0.98-0.09,2.141-0.447,3.078-0.715c1.518-0.4,2.9-0.312,4.461-0.713	c0.715-0.179,1.428-0.402,2.143-0.625c0-0.134,0-0.268,0-0.401c-0.803-0.803-1.383-1.874-2.23-2.632	c-2.275-1.963-4.775-3.882-7.363-5.488c-1.383-0.892-3.168-1.473-4.639-2.23c-0.537-0.268-1.428-0.402-1.74-0.848	c-0.805-0.981-1.25-2.275-1.83-3.436c-1.293-2.454-2.543-5.175-3.658-7.763c-0.803-1.74-1.295-3.48-2.275-5.086	c-4.596-7.585-9.594-12.181-17.268-16.687c-1.65-0.937-3.613-1.339-5.711-1.829c-1.115-0.045-2.23-0.134-3.346-0.179	c-0.715-0.312-1.428-1.16-2.053-1.562c-2.543-1.606-9.102-5.086-10.977-0.491c-1.205,2.9,1.785,5.755,2.811,7.228	c0.76,1.026,1.74,2.186,2.277,3.346c0.311,0.758,0.4,1.562,0.713,2.365c0.713,1.963,1.383,4.149,2.32,5.979	c0.49,0.937,1.025,1.919,1.65,2.767c0.357,0.491,0.982,0.714,1.115,1.517c-0.625,0.893-0.668,2.231-1.025,3.347	c-1.607,5.042-0.982,11.288,1.293,14.991c0.715,1.115,2.41,3.569,4.686,2.632c2.008-0.803,1.561-3.346,2.141-5.577	c0.135-0.535,0.045-0.892,0.312-1.249c0,0.044,0,0.089,0,0.089c0.625,1.249,1.25,2.454,1.83,3.703	c1.383,2.186,3.793,4.462,5.801,5.979c1.07,0.803,1.918,2.187,3.256,2.677c0-0.045,0-0.09,0-0.135c-0.045,0-0.045,0-0.088,0	c-0.268-0.4-0.67-0.579-1.027-0.892c-0.803-0.803-1.695-1.785-2.32-2.677c-1.873-2.498-3.523-5.265-4.996-8.12	c-0.715-1.383-1.34-2.9-1.918-4.283c-0.27-0.536-0.27-1.339-0.715-1.606c-0.67,0.981-1.65,1.83-2.143,3.034	c-0.848,1.918-0.936,4.283-1.248,6.737c-0.18,0.045-0.09,0-0.18,0.089c-1.426-0.356-1.918-1.829-2.453-3.078	c-1.338-3.168-1.562-8.254-0.402-11.913c0.312-0.937,1.652-3.882,1.117-4.774c-0.27-0.848-1.16-1.338-1.652-2.008	c-0.58-0.848-1.203-1.918-1.605-2.855c-1.07-2.499-1.605-5.265-2.766-7.764c-0.537-1.16-1.473-2.365-2.232-3.435	c-0.848-1.205-1.783-2.053-2.453-3.48c-0.223-0.491-0.535-1.294-0.178-1.829c0.088-0.357,0.268-0.491,0.623-0.58	c0.58-0.491,2.232,0.134,2.812,0.401c1.65,0.669,3.033,1.294,4.416,2.23c0.625,0.446,1.295,1.294,2.098,1.518	c0.312,0,0.625,0,0.938,0c1.428,0.312,3.033,0.089,4.371,0.49c2.365,0.759,4.506,1.874,6.426,3.079	c5.844,3.703,10.664,8.968,13.92,15.259c0.535,1.026,0.758,1.963,1.25,3.034c0.938,2.187,2.098,4.417,3.033,6.559	c0.938,2.097,1.83,4.239,3.168,5.979c0.67,0.937,3.346,1.427,4.551,1.918c0.893,0.401,2.275,0.759,3.08,1.249	c1.516,0.937,3.033,2.008,4.461,3.034C176.711,92.879,178.943,93.994,179.076,94.886L179.076,94.886z"/><path style="fill-rule:evenodd;clip-rule:evenodd;fill:#00678C;" d="M133.566,56.114c-0.758,0-1.293,0.089-1.828,0.223	c0,0,0,0.045,0,0.089c0.043,0,0.043,0,0.088,0c0.357,0.714,0.982,1.205,1.428,1.829c0.357,0.714,0.67,1.428,1.027,2.142	c0.045-0.045,0.088-0.089,0.088-0.089c0.625-0.446,0.938-1.16,0.938-2.231c-0.268-0.312-0.312-0.625-0.535-0.937	C134.504,56.694,133.924,56.471,133.566,56.114L133.566,56.114z"/><path style="fill-rule:evenodd;clip-rule:evenodd;fill:#CE8B2C;" d="M85.916,128.215h16.776c1.963,0,3.838-0.4,5.354-1.115	c2.543-1.16,3.748-2.721,3.748-4.773v-4.283c0-1.65-1.383-3.213-4.148-4.283c-1.428-0.535-3.213-0.848-4.953-0.848h-7.049	c-2.365,0-3.48-0.715-3.793-2.275c-0.044-0.178-0.044-0.357-0.044-0.535v-2.633c0-0.135,0-0.312,0.044-0.49	c0.312-1.205,0.937-1.518,2.99-1.74c0.178,0,0.401,0,0.535,0h16.642v-3.883H95.687c-2.365,0-3.614,0.135-4.729,0.492	c-3.436,1.07-4.953,2.766-4.953,5.754v3.393c0,2.631,2.945,4.863,7.942,5.398c0.535,0.045,1.115,0.045,1.695,0.045h6.024	c0.223,0,0.445,0,0.623,0.045c1.83,0.178,2.633,0.49,3.168,1.158c0.357,0.357,0.447,0.67,0.447,1.072v3.391	c0,0.4-0.268,0.938-0.803,1.383c-0.537,0.445-1.385,0.758-2.5,0.803c-0.223,0-0.355,0.045-0.58,0.045H85.916V128.215	L85.916,128.215z"/><path style="fill-rule:evenodd;clip-rule:evenodd;fill:#CE8B2C;" d="M148.111,121.479c0,3.971,2.99,6.201,8.969,6.648	c0.58,0.045,1.115,0.088,1.695,0.088h15.17v-3.881h-15.303c-3.393,0-4.686-0.848-4.686-2.9v-20.078h-5.846V121.479L148.111,121.479	z"/><path style="fill-rule:evenodd;clip-rule:evenodd;fill:#CE8B2C;" d="M115.496,121.656v-13.83c0-3.525,2.498-5.668,7.363-6.336	c0.535-0.045,1.07-0.09,1.561-0.09h11.064c0.58,0,1.072,0.045,1.652,0.09c4.863,0.668,7.316,2.811,7.316,6.336v13.83	c0,2.855-1.025,4.373-3.436,5.4l5.711,5.174h-6.736l-4.641-4.193l-4.686,0.268h-6.246c-1.025,0-2.186-0.133-3.391-0.445	C117.326,126.832,115.496,124.869,115.496,121.656L115.496,121.656z M121.787,121.346c0,0.178,0.09,0.355,0.135,0.58	c0.312,1.605,1.828,2.498,4.148,2.498h5.266l-4.818-4.373h6.736l4.238,3.838c0.805-0.447,1.295-1.072,1.473-1.875	c0.045-0.178,0.045-0.4,0.045-0.58v-13.252c0-0.178,0-0.355-0.045-0.535c-0.312-1.516-1.828-2.363-4.104-2.363h-8.791	c-2.588,0-4.283,1.115-4.283,2.898V121.346L121.787,121.346z"/><path style="fill-rule:evenodd;clip-rule:evenodd;fill:#CE8B2C;" d="M176.623,128.26h0.848v-3.256h1.115v-0.67h-3.123v0.67h1.16	V128.26L176.623,128.26z M183.092,128.26h0.803v-3.926h-1.203l-0.982,2.678l-1.07-2.678h-1.16v3.926h0.758v-2.988h0.045	l1.115,2.988h0.58l1.115-2.988l0,0V128.26L183.092,128.26z"/></g></svg>